# xmcd
#
# Track frame offsets: 
#        151
#        17889
#        38780
#        58579
#        79641
#        101523
#        116125
#        136488
#        157337
#        174765
#        202831
#        230212
#        252256
#        274681
#        297170
#        320497
#        335187
#
# Disc length: 4689 seconds
#
# Revision: 0
# Processed by: cddbd v1.4PL0 Copyright (c) Steve Scherf et al.
# Submitted via: ExactAudioCopy v0.95a3
#
DISCID=f9124f11
DTITLE=顺子 - 我的朋友Betty Su
DYEAR=2003
DGENRE=Pop
TTITLE0=我的朋友Betty Su
TTITLE1=问自己
TTITLE2=I Will Be Fine
TTITLE3=If You Want My Love
TTITLE4=不再想念
TTITLE5=Don't Know Why
TTITLE6=Without Love
TTITLE7=遇见旧爱
TTITLE8=就现在
TTITLE9=D.Doo Bang
TTITLE10=眷恋
TTITLE11=It's Gonna Be Alright
TTITLE12=看见Star Blue
TTITLE13=回家
TTITLE14=星星
TTITLE15=Dear Friend
TTITLE16=And I Know
EXTD=
EXTT0=
EXTT1=
EXTT2=
EXTT3=
EXTT4=
EXTT5=
EXTT6=
EXTT7=
EXTT8=
EXTT9=
EXTT10=
EXTT11=
EXTT12=
EXTT13=
EXTT14=
EXTT15=
EXTT16=
PLAYORDER=
